<svg width="32" height="32" viewBox="0 0 32 32" xmlns="http://www.w3.org/2000/svg">
  <defs>
    <linearGradient id="festivalGradient" x1="0%" y1="0%" x2="100%" y2="100%">
      <stop offset="0%" style="stop-color:#00b894;stop-opacity:1" />
      <stop offset="100%" style="stop-color:#e17055;stop-opacity:1" />
    </linearGradient>
  </defs>
  
  <!-- Background Circle -->
  <circle cx="16" cy="16" r="15" fill="url(#festivalGradient)" stroke="#ffffff" stroke-width="1"/>
  
  <!-- Music Note Symbol -->
  <path d="M12 8 L12 20 C12 21.1 11.1 22 10 22 C8.9 22 8 21.1 8 20 C8 18.9 8.9 18 10 18 C10.6 18 11.1 18.3 11.4 18.7 L11.4 10.5 L20 8.5 L20 17 C20 18.1 19.1 19 18 19 C16.9 19 16 18.1 16 17 C16 15.9 16.9 15 18 15 C18.6 15 19.1 15.3 19.4 15.7 L19.4 8 L12 8 Z" fill="#ffffff"/>
  
  <!-- Festival Stars -->
  <circle cx="8" cy="8" r="1.5" fill="#ffd700"/>
  <circle cx="24" cy="10" r="1" fill="#ffd700"/>
  <circle cx="6" cy="24" r="1" fill="#ffd700"/>
  <circle cx="26" cy="24" r="1.5" fill="#ffd700"/>
</svg>